# xmcd CD database file
#
# Track frame offsets:
#	150
#	35312
#	71162
#	105962
#	136262
#	191362
#	211912
#
# Disc length: 3358 seconds
#
# Revision: 0
# Processed by: cddbd v1.5.2PL0 Copyright (c) Steve Scherf et al.
# Submitted via: CDex 1.51
#
DISCID=580d1c07
DTITLE=Maarten Altena - Cities and Streets
DYEAR=1989
DGENRE=Jazz
TTITLE0=Prikkel
TTITLE1=Blauw Beest
TTITLE2=Rij
TTITLE3=Slange
TTITLE4=Tritych
TTITLE5=Echoes And Shadows
TTITLE6=Rif
EXTD=YEAR: 1989
EXTT0=
EXTT1=
EXTT2=
EXTT3=
EXTT4=
EXTT5=
EXTT6=
PLAYORDER=
